<svg width="38" height="38" viewBox="0 0 38 38" fill="none" xmlns="http://www.w3.org/2000/svg">
<g id="_Etsy">
<path id="Vector" d="M33.0975 26.8903L31.8007 31.0608C31.1096 33.2831 29.0529 34.7974 26.7256 34.7974H16.7961C15.322 34.7974 14.1272 33.6025 14.1272 32.1286V20.9242H21.3155C23.2022 20.9242 24.7317 22.4537 24.7317 24.3404V25.2197C24.7317 25.4809 24.9434 25.6926 25.2046 25.6926H26.6785C26.9397 25.6926 27.1515 25.4809 27.1515 25.2197V12.2873C27.1515 12.0262 26.9397 11.8144 26.6785 11.8144H25.2046C24.9434 11.8144 24.7317 12.0262 24.7317 12.2873V13.6648C24.7317 15.5515 23.2022 17.0811 21.3155 17.0811H14.1272V5.87155C14.1272 4.39752 15.3222 3.20267 16.7961 3.20267H26.2262C28.6632 3.20267 30.6388 5.17828 30.6388 7.61528V10.2739C30.6388 10.5351 30.8505 10.7468 31.1117 10.7468H32.8352C33.0818 10.7468 33.2871 10.5573 33.3066 10.3113L34.0325 1.17739C34.0829 0.54274 33.5816 0 32.945 0H2.99462C2.5787 0 2.24155 0.337152 2.24155 0.75307V2.4496C2.24155 2.86552 2.5787 3.20267 2.99462 3.20267H4.91042C6.38445 3.20267 7.5793 4.39763 7.5793 5.87155V32.1285C7.5793 33.6025 6.38434 34.7973 4.91042 34.7973H2.99462C2.5787 34.7973 2.24155 35.1345 2.24155 35.5504V37.2469C2.24155 37.6628 2.5787 38 2.99462 38H33.1859C33.7262 38 34.1851 37.6046 34.2649 37.0701L35.7532 27.1005C35.7959 26.8146 35.5744 26.5577 35.2854 26.5577H33.5492C33.3419 26.5577 33.159 26.6924 33.0975 26.8903Z" fill="#E65300"/>
</g>
</svg>
