<svg width="60" height="60" viewBox="0 0 60 60" fill="none" xmlns="http://www.w3.org/2000/svg">
<g id="_Instagram">
<g id="Group">
<path id="Vector" d="M59.832 17.6301C59.6879 14.4355 59.1718 12.2498 58.4397 10.3403C57.6715 8.3707 56.6513 6.68935 54.983 5.03203C53.3147 3.3747 51.6463 2.32986 49.6779 1.57326C47.7696 0.828663 45.5851 0.324259 42.3925 0.180144C39.1878 0.0360288 38.1676 0 30.03 0C21.8804 0 20.8602 0.0360288 17.6675 0.180144C14.4749 0.324259 12.2905 0.840673 10.3821 1.57326C8.40168 2.34187 6.72135 3.36269 5.06502 5.03203C3.40869 6.70136 2.36448 8.3707 1.60833 10.3403C0.876179 12.2498 0.360076 14.4355 0.216047 17.6301C0.0720179 20.8367 0.0360107 21.8575 0.0360107 30C0.0360107 38.1545 0.0720179 39.1753 0.216047 42.3699C0.360076 45.5645 0.876179 47.7502 1.60833 49.6597C2.37648 51.6293 3.39668 53.3106 5.06502 54.968C6.72135 56.6373 8.40168 57.6701 10.3701 58.4267C12.2785 59.1713 14.4629 59.6757 17.6555 59.8199C20.8602 59.964 21.8804 60 30.018 60C38.1676 60 39.1878 59.964 42.3805 59.8199C45.5731 59.6757 47.7576 59.1593 49.6659 58.4267C51.6343 57.6581 53.3147 56.6373 54.971 54.968C56.6273 53.2986 57.6715 51.6293 58.4277 49.6597C59.1718 47.7502 59.6759 45.5645 59.82 42.3699C59.964 39.1633 60 38.1425 60 30C60 21.8575 59.976 20.8247 59.832 17.6301ZM54.4429 42.1297C54.3109 45.06 53.8188 46.6573 53.4107 47.7022C52.8706 49.0953 52.2104 50.1041 51.1542 51.1609C50.098 52.2178 49.1018 52.8543 47.6975 53.4187C46.6413 53.8271 45.045 54.3195 42.1284 54.4516C38.9718 54.5957 38.0236 54.6317 30.006 54.6317C21.9884 54.6317 21.0402 54.5957 17.8836 54.4516C14.955 54.3195 13.3587 53.8271 12.3145 53.4187C10.9222 52.8783 9.91399 52.2178 8.85777 51.1609C7.80156 50.1041 7.16544 49.1073 6.60132 47.7022C6.19324 46.6453 5.70114 45.048 5.56912 42.1297C5.42509 38.9712 5.38908 38.0224 5.38908 30C5.38908 21.9776 5.42509 21.0288 5.56912 17.8703C5.70114 14.94 6.19324 13.3427 6.60132 12.2978C7.14143 10.9047 7.80156 9.89592 8.85777 8.83907C9.91399 7.78223 10.9102 7.14572 12.3145 6.58126C13.3707 6.17294 14.967 5.68054 17.8836 5.54844C21.0402 5.40432 21.9884 5.36829 30.006 5.36829C38.0236 5.36829 38.9718 5.40432 42.1284 5.54844C45.057 5.68054 46.6533 6.17294 47.6975 6.58126C49.0898 7.1217 50.098 7.78223 51.1542 8.83907C52.2104 9.89592 52.8466 10.8927 53.4107 12.2978C53.8188 13.3547 54.3109 14.952 54.4429 17.8703C54.5869 21.0288 54.6229 21.9776 54.6229 30C54.6229 38.0224 54.5749 38.9712 54.4429 42.1297Z" fill="url(#paint0_linear_29_132)"/>
<path id="Vector_2" d="M30.0061 14.5797C21.4844 14.5797 14.595 21.4852 14.595 30C14.595 38.5268 21.4964 45.4203 30.0061 45.4203C38.5158 45.4203 45.4172 38.5028 45.4172 30C45.4172 21.4732 38.5278 14.5797 30.0061 14.5797ZM30.0061 40.004C24.485 40.004 20.0081 35.5244 20.0081 30C20.0081 24.4756 24.485 19.996 30.0061 19.996C35.5272 19.996 40.0041 24.4756 40.0041 30C40.0041 35.5244 35.5272 40.004 30.0061 40.004Z" fill="url(#paint1_linear_29_132)"/>
<path id="Vector_3" d="M46.0173 17.5821C48.0059 17.5821 49.618 15.969 49.618 13.9792C49.618 11.9894 48.0059 10.3763 46.0173 10.3763C44.0286 10.3763 42.4165 11.9894 42.4165 13.9792C42.4165 15.969 44.0286 17.5821 46.0173 17.5821Z" fill="#BC30A0"/>
</g>
<path id="Vector_4" d="M0 30C0 38.1545 0.0360072 39.1753 0.180036 42.3699C0.324065 45.5645 0.840168 47.7502 1.57231 49.6597C2.34047 51.6293 3.36067 53.3106 5.02901 54.968C6.68534 56.6253 8.36567 57.6701 10.3341 58.4267C12.2424 59.1713 14.4269 59.6757 17.6195 59.8199C20.8242 59.964 21.8444 60 29.982 60C38.1316 60 39.1518 59.964 42.3445 59.8199C45.5371 59.6757 47.7215 59.1593 49.6299 58.4267C51.5983 57.6581 53.2787 56.6373 54.935 54.968C56.5913 53.3106 57.6355 51.6293 58.3917 49.6597C59.1358 47.7502 59.6399 45.5645 59.784 42.3699C59.928 39.1633 59.964 38.1425 59.964 30C59.964 21.8455 59.928 20.8247 59.784 17.6301C59.6399 14.4355 59.1238 12.2498 58.3917 10.3403C57.6235 8.3707 56.6033 6.68935 54.935 5.03203C53.2907 3.36269 51.6103 2.32986 49.6419 1.57326C47.7335 0.828663 45.5491 0.324259 42.3565 0.180144C39.1518 0.0360288 38.1316 0 29.994 0C21.8444 0 20.8242 0.0360288 17.6315 0.180144C14.4389 0.324259 12.2544 0.840673 10.3461 1.57326C8.37768 2.34187 6.69734 3.36269 5.04101 5.03203C3.38468 6.70136 2.34047 8.3707 1.58432 10.3403C0.840168 12.2498 0.324065 14.4355 0.180036 17.6301C0.0360072 20.8247 0 21.8455 0 30ZM5.41308 30C5.41308 21.9896 5.44909 21.0288 5.59312 17.8703C5.72514 14.94 6.21724 13.3427 6.62533 12.2978C7.16543 10.9047 7.82556 9.89592 8.88178 8.83907C9.93799 7.78223 10.9342 7.14572 12.3385 6.58126C13.3947 6.17294 14.991 5.68054 17.9076 5.54844C21.0642 5.40432 22.0124 5.36829 30.03 5.36829C38.0476 5.36829 38.9958 5.40432 42.1524 5.54844C45.081 5.68054 46.6773 6.17294 47.7215 6.58126C49.1138 7.1217 50.122 7.78223 51.1782 8.83907C52.2344 9.89592 52.8706 10.8927 53.4347 12.2978C53.8428 13.3547 54.3349 14.952 54.4669 17.8703C54.6109 21.0288 54.6469 21.9776 54.6469 30C54.6469 38.0224 54.6109 38.9712 54.4669 42.1297C54.3349 45.06 53.8428 46.6573 53.4347 47.7022C52.8946 49.0953 52.2344 50.1041 51.1782 51.1609C50.122 52.2178 49.1258 52.8543 47.7215 53.4187C46.6653 53.8271 45.069 54.3195 42.1524 54.4516C38.9958 54.5957 38.0476 54.6317 30.03 54.6317C22.0124 54.6317 21.0642 54.5957 17.9076 54.4516C14.979 54.3195 13.3827 53.8271 12.3385 53.4187C10.9462 52.8783 9.93799 52.2178 8.88178 51.1609C7.82556 50.1041 7.18944 49.1073 6.62533 47.7022C6.21724 46.6453 5.72514 45.048 5.59312 42.1297C5.43709 38.9712 5.41308 38.0104 5.41308 30Z" fill="url(#paint2_linear_29_132)"/>
</g>
<defs>
<linearGradient id="paint0_linear_29_132" x1="50.7387" y1="4.58801" x2="7.3326" y2="57.769" gradientUnits="userSpaceOnUse">
<stop stop-color="#AE3DAE"/>
<stop offset="0.0468721" stop-color="#B23BA6"/>
<stop offset="0.1216" stop-color="#BD368E"/>
<stop offset="0.2148" stop-color="#CE2E69"/>
<stop offset="0.3216" stop-color="#E62335"/>
<stop offset="0.418" stop-color="#FF1800"/>
</linearGradient>
<linearGradient id="paint1_linear_29_132" x1="37.3557" y1="17.6321" x2="21.5873" y2="44.1285" gradientUnits="userSpaceOnUse">
<stop stop-color="#E12F6A"/>
<stop offset="0.1705" stop-color="#EA3751"/>
<stop offset="0.3563" stop-color="#F13D3E"/>
<stop offset="0.5467" stop-color="#F64133"/>
<stop offset="0.7469" stop-color="#F7422F"/>
<stop offset="0.7946" stop-color="#F74C2F"/>
<stop offset="0.8743" stop-color="#F7652F"/>
<stop offset="0.9757" stop-color="#F78F2E"/>
<stop offset="1" stop-color="#F79A2E"/>
</linearGradient>
<linearGradient id="paint2_linear_29_132" x1="43.5952" y1="-2.47008" x2="17.0347" y2="60.8408" gradientUnits="userSpaceOnUse">
<stop offset="0.2341" stop-color="#9E35A5" stop-opacity="0"/>
<stop offset="0.4512" stop-color="#D42F7F" stop-opacity="0.5"/>
<stop offset="0.7524" stop-color="#F7772E"/>
<stop offset="0.9624" stop-color="#FEF780"/>
</linearGradient>
</defs>
</svg>
